<?xml version="1.0" encoding="utf-8"?>
<!-- Generator: Adobe Illustrator 27.9.0, SVG Export Plug-In . SVG Version: 6.00 Build 0)  -->
<svg version="1.1" id="Layer_1" xmlns="http://www.w3.org/2000/svg" xmlns:xlink="http://www.w3.org/1999/xlink" x="0px" y="0px"
	 viewBox="0 0 100 100" style="enable-background:new 0 0 100 100;" xml:space="preserve">
<style type="text/css">
	.st0{fill:none;stroke:#000000;stroke-miterlimit:10;}
</style>
<polygon points="98.26,10 86.59,90 86.26,90 79.74,79.77 89.92,10 "/>
<polygon points="44.43,45.8 49,52.71 24.5,90.2 23,79.2 "/>
<polygon points="77.5,10 55.57,43.61 51,36.75 68.5,10 "/>
<polygon class="st0" points="54.57,44.61 50,51.51 45.43,44.61 50,37.75 "/>
<polygon points="49,36.75 44.43,43.61 22.5,10 31.5,10 "/>
<polygon points="77,79.2 75.5,90.2 51,52.71 55.57,45.8 "/>
<polygon class="st0" points="85,91.12 77,91.12 78.49,80.88 "/>
<polygon class="st0" points="15,91.12 23,91.12 21.51,80.88 "/>
<polygon points="1.74,10 13.41,90 13.74,90 20.26,79.77 10.08,10 "/>
</svg>
